<svg width="64" height="63" viewBox="0 0 64 63" fill="none" xmlns="http://www.w3.org/2000/svg">
<path d="M62.1868 21.9529C61.9868 21.2529 61.7868 20.5529 61.4868 19.8529C58.9868 12.1529 53.3868 5.3529 44.2868 1.9529C19.1868 -7.5471 -10.2132 19.353 3.48682 45.053C17.7868 71.953 56.5868 66.853 62.8868 37.053C63.9868 31.753 63.5868 26.6529 62.1868 22.0529C62.2868 22.0529 62.1868 22.0529 62.1868 21.9529ZM18.5868 39.8528C9.18682 26.6528 24.2868 11.4529 37.7868 14.7529C40.9868 15.5529 43.3868 16.9529 45.1868 18.7529C46.9868 20.7529 48.2868 23.2528 48.8868 26.1528C49.5868 30.1528 48.8868 34.6528 47.0868 38.6528C41.3868 48.3528 26.0868 50.3528 18.5868 39.8528Z" fill="#2D2D2D"/>
</svg>
