<svg width="711" height="150" viewBox="0 0 711 150" fill="none" xmlns="http://www.w3.org/2000/svg">
<path d="M2.04582 92.8057V12.7871H0L1.36388 0.527306H22.6404L29.187 50.2258L35.87 0.527306H56.7374V92.8057H43.7805V21.0922L33.6878 79.623H24.8226L15.0027 22.6741V92.8057H2.04582Z" fill="white"/>
<path d="M73.8253 92.8057H60.8684L68.2334 12.7871H65.7784L67.1423 0.527306H92.1013L100.557 92.8057H87.6005L86.1002 76.9865H75.3256L73.8253 92.8057ZM76.4167 64.7267H85.0091L80.7811 18.8512L76.4167 64.7267Z" fill="white"/>
<path d="M103.223 12.7871L104.587 0.527306H126.136C129.955 0.527306 133.047 1.6698 135.411 3.95479C137.775 6.15189 138.957 9.09601 138.957 12.7871V54.0488C138.957 55.9822 138.548 57.7399 137.729 59.3218C136.911 60.8158 135.82 62.0902 134.456 63.1448L143.185 92.8057H130.092L122.318 66.3086H118.226V92.8057H105.269V12.7871H103.223ZM125.318 12.7871H118.226V54.0488H125.318C125.773 54.0488 126 53.829 126 53.3896V13.4463C126 13.0069 125.773 12.7871 125.318 12.7871Z" fill="white"/>
<path d="M157.501 66.4404V80.414C157.501 80.8534 157.729 81.0731 158.183 81.0731H163.639C164.093 81.0731 164.321 80.8534 164.321 80.414V56.6853L153.546 52.0714C152.728 51.8077 151.591 51.3683 150.136 50.7531C148.682 50.05 147.363 49.0394 146.181 47.7211C145.09 46.4028 144.545 44.6012 144.545 42.3162V12.2598C144.545 8.56871 145.727 5.62459 148.091 3.42748C150.455 1.14249 153.546 0 157.365 0H164.457C168.276 0 171.368 1.14249 173.732 3.42748C176.096 5.62459 177.278 8.56871 177.278 12.2598V31.7701L164.321 30.7155V12.919C164.321 12.4796 164.093 12.2598 163.639 12.2598H158.183C157.729 12.2598 157.501 12.4796 157.501 12.919V40.4707L168.276 45.0846C169.094 45.4361 170.231 45.9195 171.686 46.5347C173.141 47.1499 174.414 48.1166 175.505 49.4348C176.687 50.7531 177.278 52.5547 177.278 54.8397V81.0731C177.278 84.7643 176.096 87.7523 173.732 90.0373C171.368 92.2344 168.276 93.333 164.457 93.333H157.365C153.546 93.333 150.455 92.2344 148.091 90.0373C145.727 87.7523 144.545 84.7643 144.545 81.0731V66.4404H157.501Z" fill="white"/>
<path d="M196.409 0.527306V40.3388H204.183V0.527306H217.14V92.8057H204.183V52.5987H196.409V92.8057H183.452V12.7871H181.407L182.77 0.527306H196.409Z" fill="white"/>
<path d="M234.188 92.8057H221.231L228.596 12.7871H226.141L227.505 0.527306H252.464L260.92 92.8057H247.963L246.463 76.9865H235.688L234.188 92.8057ZM236.779 64.7267H245.371L241.143 18.8512L236.779 64.7267Z" fill="white"/>
<path d="M299.319 80.5458L298.228 92.8057H265.631V12.7871H263.586L264.95 0.527306H278.588V80.5458H299.319Z" fill="white"/>
<path d="M339.143 80.5458L338.052 92.8057H305.456V12.7871H303.41L304.774 0.527306H318.413V80.5458H339.143Z" fill="white"/>
<path d="M382.062 66.4404V80.414C382.062 80.8534 382.289 81.0731 382.744 81.0731H388.199C388.654 81.0731 388.881 80.8534 388.881 80.414V56.6853L378.107 52.0714C377.288 51.8077 376.152 51.3683 374.697 50.7531C373.242 50.05 371.924 49.0394 370.742 47.7211C369.651 46.4028 369.105 44.6012 369.105 42.3162V12.2598C369.105 8.56871 370.287 5.62459 372.651 3.42748C375.015 1.14249 378.107 0 381.926 0H389.018C392.837 0 395.928 1.14249 398.292 3.42748C400.656 5.62459 401.838 8.56871 401.838 12.2598V31.7701L388.881 30.7155V12.919C388.881 12.4796 388.654 12.2598 388.199 12.2598H382.744C382.289 12.2598 382.062 12.4796 382.062 12.919V40.4707L392.837 45.0846C393.655 45.4361 394.792 45.9195 396.246 46.5347C397.701 47.1499 398.974 48.1166 400.065 49.4348C401.247 50.7531 401.838 52.5547 401.838 54.8397V81.0731C401.838 84.7643 400.656 87.7523 398.292 90.0373C395.928 92.2344 392.837 93.333 389.018 93.333H381.926C378.107 93.333 375.015 92.2344 372.651 90.0373C370.287 87.7523 369.105 84.7643 369.105 81.0731V66.4404H382.062Z" fill="white"/>
<path d="M442.792 81.0731C442.792 84.7643 441.61 87.7523 439.246 90.0373C436.882 92.2344 433.79 93.333 429.971 93.333H420.152C416.333 93.333 413.241 92.2344 410.877 90.0373C408.513 87.7523 407.331 84.7643 407.331 81.0731V12.2598C407.331 8.56871 408.513 5.62459 410.877 3.42748C413.241 1.14249 416.333 0 420.152 0H429.971C433.79 0 436.882 1.14249 439.246 3.42748C441.61 5.62459 442.792 8.56871 442.792 12.2598V81.0731ZM420.97 12.2598C420.515 12.2598 420.288 12.4796 420.288 12.919V80.414C420.288 80.8534 420.515 81.0731 420.97 81.0731H429.153C429.608 81.0731 429.835 80.8534 429.835 80.414V12.919C429.835 12.4796 429.608 12.2598 429.153 12.2598H420.97Z" fill="white"/>
<path d="M483.922 80.5458L482.831 92.8057H450.235V12.7871H448.189L449.553 0.527306H463.191V80.5458H483.922Z" fill="white"/>
<path d="M522.158 81.0731C522.158 84.7643 520.976 87.7523 518.612 90.0373C516.248 92.2344 513.156 93.333 509.337 93.333H500.881C497.063 93.333 493.971 92.2344 491.607 90.0373C489.243 87.7523 488.061 84.7643 488.061 81.0731V12.7871H486.015L487.379 0.527306H501.018V80.414C501.018 80.8534 501.245 81.0731 501.7 81.0731H508.519C508.974 81.0731 509.201 80.8534 509.201 80.414V0.790963H522.158V81.0731Z" fill="white"/>
<path d="M526.271 12.7871V0.527306H563.778V12.7871H551.503V92.8057H538.546V12.7871H526.271Z" fill="white"/>
<path d="M568.642 92.8057V12.7871H566.596L567.96 0.527306H581.599V92.8057H568.642Z" fill="white"/>
<path d="M622.467 81.0731C622.467 84.7643 621.285 87.7523 618.921 90.0373C616.557 92.2344 613.465 93.333 609.647 93.333H599.827C596.008 93.333 592.916 92.2344 590.552 90.0373C588.188 87.7523 587.006 84.7643 587.006 81.0731V12.2598C587.006 8.56871 588.188 5.62459 590.552 3.42748C592.916 1.14249 596.008 0 599.827 0H609.647C613.465 0 616.557 1.14249 618.921 3.42748C621.285 5.62459 622.467 8.56871 622.467 12.2598V81.0731ZM600.645 12.2598C600.19 12.2598 599.963 12.4796 599.963 12.919V80.414C599.963 80.8534 600.19 81.0731 600.645 81.0731H608.828C609.283 81.0731 609.51 80.8534 609.51 80.414V12.919C609.51 12.4796 609.283 12.2598 608.828 12.2598H600.645Z" fill="white"/>
<path d="M656.537 0.527306H669.494V92.8057H656.537L641.535 36.384V92.8057H628.578V12.7871H626.532L627.896 0.527306H642.217L657.356 59.19L656.537 0.527306Z" fill="white"/>
<path d="M687.869 66.4404V80.414C687.869 80.8534 688.097 81.0731 688.551 81.0731H694.007C694.461 81.0731 694.689 80.8534 694.689 80.414V56.6853L683.914 52.0714C683.096 51.8077 681.959 51.3683 680.504 50.7531C679.05 50.05 677.731 49.0394 676.549 47.7211C675.458 46.4028 674.912 44.6012 674.912 42.3162V12.2598C674.912 8.56871 676.094 5.62459 678.459 3.42748C680.823 1.14249 683.914 0 687.733 0H694.825C698.644 0 701.735 1.14249 704.099 3.42748C706.464 5.62459 707.646 8.56871 707.646 12.2598V31.7701L694.689 30.7155V12.919C694.689 12.4796 694.461 12.2598 694.007 12.2598H688.551C688.097 12.2598 687.869 12.4796 687.869 12.919V40.4707L698.644 45.0846C699.462 45.4361 700.599 45.9195 702.054 46.5347C703.508 47.1499 704.781 48.1166 705.872 49.4348C707.055 50.7531 707.646 52.5547 707.646 54.8397V81.0731C707.646 84.7643 706.464 87.7523 704.099 90.0373C701.735 92.2344 698.644 93.333 694.825 93.333H687.733C683.914 93.333 680.823 92.2344 678.459 90.0373C676.094 87.7523 674.912 84.7643 674.912 81.0731V66.4404H687.869Z" fill="white"/>
<path d="M18.3996 132.58C19.6095 132.97 20.5691 133.628 21.2784 134.553C21.9877 135.457 22.3424 136.588 22.3424 137.944C22.3424 139.815 21.6122 141.264 20.1519 142.292C18.6916 143.299 16.5638 143.803 13.7683 143.803H2.87866V122.22H13.1425C15.7293 122.22 17.7216 122.724 19.1193 123.731C20.517 124.717 21.2158 126.084 21.2158 127.831C21.2158 128.9 20.9655 129.846 20.4648 130.668C19.9642 131.49 19.2757 132.127 18.3996 132.58ZM6.94664 125.365V131.315H12.7044C14.123 131.315 15.2078 131.069 15.9588 130.575C16.7306 130.062 17.1166 129.322 17.1166 128.356C17.1166 127.369 16.7306 126.629 15.9588 126.136C15.2078 125.622 14.123 125.365 12.7044 125.365H6.94664ZM13.518 140.658C16.6681 140.658 18.2431 139.62 18.2431 137.544C18.2431 135.468 16.6681 134.43 13.518 134.43H6.94664V140.658H13.518Z" fill="url(#paint0_linear_491_34)"/>
<path d="M51.3421 120.925H55.2536V143.803H51.3421V120.925Z" fill="url(#paint1_linear_491_34)"/>
<path d="M92.9313 144.018C91.2415 144.018 89.7186 143.659 88.3626 142.939C87.0066 142.22 85.9427 141.223 85.1708 139.949C84.4198 138.654 84.0443 137.194 84.0443 135.57C84.0443 133.947 84.4198 132.497 85.1708 131.223C85.9427 129.949 87.0066 128.952 88.3626 128.232C89.7186 127.513 91.2415 127.153 92.9313 127.153C94.6419 127.153 96.1752 127.513 97.5312 128.232C98.8872 128.952 99.9407 129.949 100.692 131.223C101.464 132.497 101.85 133.947 101.85 135.57C101.85 137.194 101.464 138.654 100.692 139.949C99.9407 141.223 98.8872 142.22 97.5312 142.939C96.1752 143.659 94.6419 144.018 92.9313 144.018ZM92.9313 140.719C94.3707 140.719 95.5598 140.247 96.4986 139.301C97.4374 138.356 97.9067 137.112 97.9067 135.57C97.9067 134.029 97.4374 132.785 96.4986 131.84C95.5598 130.894 94.3707 130.421 92.9313 130.421C91.4919 130.421 90.3027 130.894 89.364 131.84C88.4461 132.785 87.9871 134.029 87.9871 135.57C87.9871 137.112 88.4461 138.356 89.364 139.301C90.3027 140.247 91.4919 140.719 92.9313 140.719Z" fill="url(#paint2_linear_491_34)"/>
<path d="M138.29 144.018C136.559 144.018 135.005 143.659 133.628 142.939C132.251 142.22 131.176 141.223 130.405 139.949C129.633 138.654 129.247 137.194 129.247 135.57C129.247 133.947 129.633 132.497 130.405 131.223C131.176 129.949 132.24 128.952 133.596 128.232C134.973 127.513 136.538 127.153 138.29 127.153C139.938 127.153 141.378 127.482 142.609 128.14C143.86 128.797 144.799 129.743 145.425 130.976L142.421 132.703C141.941 131.942 141.336 131.377 140.606 131.007C139.897 130.617 139.114 130.421 138.259 130.421C136.799 130.421 135.589 130.894 134.629 131.84C133.669 132.765 133.19 134.008 133.19 135.57C133.19 137.133 133.659 138.386 134.598 139.332C135.557 140.257 136.778 140.719 138.259 140.719C139.114 140.719 139.897 140.534 140.606 140.164C141.336 139.774 141.941 139.198 142.421 138.438L145.425 140.164C144.778 141.398 143.829 142.353 142.577 143.032C141.346 143.69 139.917 144.018 138.29 144.018Z" fill="url(#paint3_linear_491_34)"/>
<path d="M180.509 136.742L177.598 139.455V143.803H173.687V120.925H177.598V134.738L185.703 127.338H190.397L183.419 134.245L191.054 143.803H186.298L180.509 136.742Z" fill="url(#paint4_linear_491_34)"/>
<path d="M225.578 144.018C223.847 144.018 222.292 143.659 220.916 142.939C219.539 142.22 218.464 141.223 217.693 139.949C216.921 138.654 216.535 137.194 216.535 135.57C216.535 133.947 216.921 132.497 217.693 131.223C218.464 129.949 219.528 128.952 220.884 128.232C222.261 127.513 223.826 127.153 225.578 127.153C227.226 127.153 228.666 127.482 229.896 128.14C231.148 128.797 232.087 129.743 232.713 130.976L229.709 132.703C229.229 131.942 228.624 131.377 227.894 131.007C227.184 130.617 226.402 130.421 225.547 130.421C224.087 130.421 222.877 130.894 221.917 131.84C220.957 132.765 220.478 134.008 220.478 135.57C220.478 137.133 220.947 138.386 221.886 139.332C222.845 140.257 224.066 140.719 225.547 140.719C226.402 140.719 227.184 140.534 227.894 140.164C228.624 139.774 229.229 139.198 229.709 138.438L232.713 140.164C232.066 141.398 231.117 142.353 229.865 143.032C228.634 143.69 227.205 144.018 225.578 144.018Z" fill="url(#paint5_linear_491_34)"/>
<path d="M270.456 127.153C272.563 127.153 274.253 127.759 275.526 128.972C276.798 130.185 277.435 131.984 277.435 134.368V143.803H273.523V134.861C273.523 133.422 273.179 132.343 272.49 131.624C271.802 130.884 270.821 130.514 269.549 130.514C268.11 130.514 266.973 130.945 266.138 131.809C265.304 132.652 264.886 133.875 264.886 135.478V143.803H260.975V120.925H264.886V129.25C265.533 128.571 266.326 128.058 267.265 127.708C268.224 127.338 269.288 127.153 270.456 127.153Z" fill="url(#paint6_linear_491_34)"/>
<path d="M313.814 127.153C316.275 127.153 318.153 127.739 319.446 128.911C320.761 130.062 321.418 131.809 321.418 134.152V143.803H317.725V141.798C317.246 142.518 316.557 143.073 315.66 143.463C314.784 143.833 313.72 144.018 312.468 144.018C311.217 144.018 310.121 143.813 309.183 143.402C308.244 142.97 307.514 142.384 306.992 141.644C306.492 140.884 306.241 140.031 306.241 139.085C306.241 137.605 306.794 136.423 307.9 135.54C309.026 134.635 310.789 134.183 313.188 134.183H317.506V133.936C317.506 132.785 317.152 131.901 316.442 131.285C315.754 130.668 314.721 130.36 313.344 130.36C312.406 130.36 311.477 130.504 310.559 130.791C309.662 131.079 308.901 131.48 308.275 131.994L306.742 129.188C307.618 128.53 308.672 128.027 309.902 127.677C311.133 127.328 312.437 127.153 313.814 127.153ZM313.282 141.213C314.262 141.213 315.128 140.997 315.879 140.565C316.651 140.113 317.193 139.476 317.506 138.654V136.742H313.47C311.217 136.742 310.09 137.472 310.09 138.931C310.09 139.63 310.372 140.185 310.935 140.596C311.498 141.007 312.281 141.213 313.282 141.213Z" fill="url(#paint7_linear_491_34)"/>
<path d="M351.471 127.338H355.383V143.803H351.471V127.338ZM353.443 124.625C352.734 124.625 352.139 124.409 351.659 123.977C351.179 123.525 350.94 122.97 350.94 122.312C350.94 121.655 351.179 121.11 351.659 120.678C352.139 120.226 352.734 120 353.443 120C354.152 120 354.747 120.216 355.227 120.647C355.706 121.059 355.946 121.583 355.946 122.22C355.946 122.898 355.706 123.474 355.227 123.947C354.768 124.399 354.173 124.625 353.443 124.625Z" fill="url(#paint8_linear_491_34)"/>
<path d="M395.032 127.153C397.139 127.153 398.829 127.759 400.101 128.972C401.374 130.185 402.01 131.984 402.01 134.368V143.803H398.099V134.861C398.099 133.422 397.754 132.343 397.066 131.624C396.378 130.884 395.397 130.514 394.125 130.514C392.685 130.514 391.548 130.945 390.714 131.809C389.879 132.652 389.462 133.875 389.462 135.478V143.803H385.551V127.338H389.274V129.466C389.921 128.705 390.735 128.129 391.715 127.739C392.696 127.348 393.801 127.153 395.032 127.153Z" fill="url(#paint9_linear_491_34)"/>
<path d="M480.27 138.808H469.318L467.158 143.803H462.965L472.822 122.22H476.828L486.716 143.803H482.46L480.27 138.808ZM478.924 135.663L474.794 126.228L470.694 135.663H478.924Z" fill="url(#paint10_linear_491_34)"/>
<path d="M530.592 127.338V141.305C530.592 147.102 527.588 150 521.58 150C519.974 150 518.451 149.794 517.011 149.383C515.572 148.993 514.383 148.417 513.444 147.657L515.196 144.758C515.926 145.354 516.844 145.827 517.95 146.177C519.076 146.547 520.213 146.732 521.361 146.732C523.197 146.732 524.542 146.321 525.398 145.498C526.253 144.676 526.68 143.422 526.68 141.737V140.874C526.013 141.593 525.199 142.138 524.24 142.508C523.28 142.878 522.227 143.063 521.079 143.063C519.494 143.063 518.054 142.734 516.761 142.076C515.488 141.398 514.477 140.452 513.726 139.239C512.995 138.027 512.63 136.639 512.63 135.077C512.63 133.515 512.995 132.138 513.726 130.945C514.477 129.733 515.488 128.797 516.761 128.14C518.054 127.482 519.494 127.153 521.079 127.153C522.289 127.153 523.384 127.348 524.365 127.739C525.366 128.129 526.201 128.726 526.868 129.527V127.338H530.592ZM521.674 139.794C523.155 139.794 524.365 139.363 525.304 138.499C526.263 137.616 526.743 136.475 526.743 135.077C526.743 133.7 526.263 132.58 525.304 131.716C524.365 130.853 523.155 130.421 521.674 130.421C520.172 130.421 518.941 130.853 517.981 131.716C517.043 132.58 516.573 133.7 516.573 135.077C516.573 136.475 517.043 137.616 517.981 138.499C518.941 139.363 520.172 139.794 521.674 139.794Z" fill="url(#paint11_linear_491_34)"/>
<path d="M576.477 135.663C576.477 135.93 576.456 136.31 576.414 136.804H563.303C563.532 138.016 564.127 138.982 565.086 139.702C566.067 140.401 567.277 140.75 568.716 140.75C570.552 140.75 572.065 140.154 573.254 138.962L575.35 141.336C574.599 142.22 573.65 142.888 572.503 143.34C571.355 143.792 570.062 144.018 568.622 144.018C566.787 144.018 565.17 143.659 563.772 142.939C562.374 142.22 561.29 141.223 560.518 139.949C559.767 138.654 559.391 137.194 559.391 135.57C559.391 133.967 559.756 132.528 560.486 131.254C561.238 129.959 562.27 128.952 563.584 128.232C564.899 127.513 566.38 127.153 568.028 127.153C569.655 127.153 571.105 127.513 572.377 128.232C573.671 128.931 574.672 129.928 575.382 131.223C576.112 132.497 576.477 133.977 576.477 135.663ZM568.028 130.236C566.776 130.236 565.712 130.606 564.836 131.346C563.981 132.066 563.459 133.032 563.271 134.245H572.753C572.586 133.052 572.075 132.086 571.22 131.346C570.364 130.606 569.3 130.236 568.028 130.236Z" fill="url(#paint12_linear_491_34)"/>
<path d="M614.749 127.153C616.856 127.153 618.546 127.759 619.819 128.972C621.091 130.185 621.727 131.984 621.727 134.368V143.803H617.816V134.861C617.816 133.422 617.472 132.343 616.783 131.624C616.095 130.884 615.114 130.514 613.842 130.514C612.402 130.514 611.265 130.945 610.431 131.809C609.596 132.652 609.179 133.875 609.179 135.478V143.803H605.268V127.338H608.992V129.466C609.638 128.705 610.452 128.129 611.432 127.739C612.413 127.348 613.518 127.153 614.749 127.153Z" fill="url(#paint13_linear_491_34)"/>
<path d="M659.542 144.018C657.811 144.018 656.257 143.659 654.88 142.939C653.503 142.22 652.429 141.223 651.657 139.949C650.885 138.654 650.499 137.194 650.499 135.57C650.499 133.947 650.885 132.497 651.657 131.223C652.429 129.949 653.493 128.952 654.849 128.232C656.225 127.513 657.79 127.153 659.542 127.153C661.191 127.153 662.63 127.482 663.861 128.14C665.112 128.797 666.051 129.743 666.677 130.976L663.673 132.703C663.193 131.942 662.588 131.377 661.858 131.007C661.149 130.617 660.366 130.421 659.511 130.421C658.051 130.421 656.841 130.894 655.881 131.84C654.922 132.765 654.442 134.008 654.442 135.57C654.442 137.133 654.911 138.386 655.85 139.332C656.81 140.257 658.03 140.719 659.511 140.719C660.366 140.719 661.149 140.534 661.858 140.164C662.588 139.774 663.193 139.198 663.673 138.438L666.677 140.164C666.03 141.398 665.081 142.353 663.83 143.032C662.599 143.69 661.17 144.018 659.542 144.018Z" fill="url(#paint14_linear_491_34)"/>
<path d="M710.524 127.338L702.701 145.128C701.971 146.917 701.084 148.171 700.041 148.89C698.998 149.63 697.736 150 696.255 150C695.42 150 694.596 149.866 693.783 149.599C692.969 149.332 692.302 148.962 691.78 148.489L693.345 145.653C693.72 146.002 694.158 146.279 694.659 146.485C695.181 146.691 695.702 146.793 696.224 146.793C696.912 146.793 697.475 146.619 697.913 146.269C698.372 145.92 698.79 145.334 699.165 144.512L699.447 143.864L692.156 127.338H696.224L701.481 139.517L706.769 127.338H710.524Z" fill="url(#paint15_linear_491_34)"/>
<defs>
<linearGradient id="paint0_linear_491_34" x1="2.87866" y1="120" x2="223.266" y2="463.04" gradientUnits="userSpaceOnUse">
<stop stop-color="#3264F8"/>
<stop offset="1" stop-color="#F02EE5"/>
</linearGradient>
<linearGradient id="paint1_linear_491_34" x1="2.87866" y1="120" x2="223.266" y2="463.04" gradientUnits="userSpaceOnUse">
<stop stop-color="#3264F8"/>
<stop offset="1" stop-color="#F02EE5"/>
</linearGradient>
<linearGradient id="paint2_linear_491_34" x1="2.87866" y1="120" x2="223.266" y2="463.04" gradientUnits="userSpaceOnUse">
<stop stop-color="#3264F8"/>
<stop offset="1" stop-color="#F02EE5"/>
</linearGradient>
<linearGradient id="paint3_linear_491_34" x1="2.87866" y1="120" x2="223.266" y2="463.04" gradientUnits="userSpaceOnUse">
<stop stop-color="#3264F8"/>
<stop offset="1" stop-color="#F02EE5"/>
</linearGradient>
<linearGradient id="paint4_linear_491_34" x1="2.87866" y1="120" x2="223.266" y2="463.04" gradientUnits="userSpaceOnUse">
<stop stop-color="#3264F8"/>
<stop offset="1" stop-color="#F02EE5"/>
</linearGradient>
<linearGradient id="paint5_linear_491_34" x1="2.87866" y1="120" x2="223.266" y2="463.04" gradientUnits="userSpaceOnUse">
<stop stop-color="#3264F8"/>
<stop offset="1" stop-color="#F02EE5"/>
</linearGradient>
<linearGradient id="paint6_linear_491_34" x1="2.87866" y1="120" x2="223.266" y2="463.04" gradientUnits="userSpaceOnUse">
<stop stop-color="#3264F8"/>
<stop offset="1" stop-color="#F02EE5"/>
</linearGradient>
<linearGradient id="paint7_linear_491_34" x1="2.87866" y1="120" x2="223.266" y2="463.04" gradientUnits="userSpaceOnUse">
<stop stop-color="#3264F8"/>
<stop offset="1" stop-color="#F02EE5"/>
</linearGradient>
<linearGradient id="paint8_linear_491_34" x1="2.87866" y1="120" x2="223.266" y2="463.04" gradientUnits="userSpaceOnUse">
<stop stop-color="#3264F8"/>
<stop offset="1" stop-color="#F02EE5"/>
</linearGradient>
<linearGradient id="paint9_linear_491_34" x1="2.87866" y1="120" x2="223.266" y2="463.04" gradientUnits="userSpaceOnUse">
<stop stop-color="#3264F8"/>
<stop offset="1" stop-color="#F02EE5"/>
</linearGradient>
<linearGradient id="paint10_linear_491_34" x1="2.87866" y1="120" x2="223.266" y2="463.04" gradientUnits="userSpaceOnUse">
<stop stop-color="#3264F8"/>
<stop offset="1" stop-color="#F02EE5"/>
</linearGradient>
<linearGradient id="paint11_linear_491_34" x1="2.87866" y1="120" x2="223.266" y2="463.04" gradientUnits="userSpaceOnUse">
<stop stop-color="#3264F8"/>
<stop offset="1" stop-color="#F02EE5"/>
</linearGradient>
<linearGradient id="paint12_linear_491_34" x1="2.87866" y1="120" x2="223.266" y2="463.04" gradientUnits="userSpaceOnUse">
<stop stop-color="#3264F8"/>
<stop offset="1" stop-color="#F02EE5"/>
</linearGradient>
<linearGradient id="paint13_linear_491_34" x1="2.87866" y1="120" x2="223.266" y2="463.04" gradientUnits="userSpaceOnUse">
<stop stop-color="#3264F8"/>
<stop offset="1" stop-color="#F02EE5"/>
</linearGradient>
<linearGradient id="paint14_linear_491_34" x1="2.87866" y1="120" x2="223.266" y2="463.04" gradientUnits="userSpaceOnUse">
<stop stop-color="#3264F8"/>
<stop offset="1" stop-color="#F02EE5"/>
</linearGradient>
<linearGradient id="paint15_linear_491_34" x1="2.87866" y1="120" x2="223.266" y2="463.04" gradientUnits="userSpaceOnUse">
<stop stop-color="#3264F8"/>
<stop offset="1" stop-color="#F02EE5"/>
</linearGradient>
</defs>
</svg>
