<svg width="205" height="329" viewBox="0 0 205 329" fill="none" xmlns="http://www.w3.org/2000/svg">
<path d="M190.398 146.855C188.4 143.785 185.509 141.28 182.408 139.044C176.267 133.082 167.77 128.789 160.734 124.645C158.588 123.393 155.547 121.216 152.178 119.129C142.936 94.9512 95.474 -9.39353 57.6714 0.683191C18.7359 7.42088 21.1806 123.721 23.3271 148.644C23.3271 148.674 23.3271 148.704 23.3569 148.733C21.9855 150.94 20.7632 152.967 19.8092 154.398C14.7112 161.851 7.85426 170.407 4.63448 179.411C3.20346 182.213 1.98114 185.045 1.23582 187.967C-2.52059 202.337 3.11403 220.374 7.10894 234.058C9.19584 241.153 13.6678 247.593 21.8066 246.311C32.6585 244.582 41.185 230.152 46.5214 221.954C48.2804 219.271 50.0692 216.498 51.7685 213.636C54.6305 214.888 57.582 215.932 60.5931 216.766C61.4576 222.043 63.306 227.111 67.3606 230.361C58.5062 242.107 52.5734 260.144 60.8018 273.47C61.4577 274.543 63.3359 275.08 64.2302 273.917C66.8836 270.489 69.5965 267.567 72.8163 264.914C72.3989 277.942 76.3342 290.374 85.7253 299.914C86.9476 301.166 88.7065 300.391 89.273 298.96C90.4953 296.068 92.2841 293.624 94.2219 291.239C102.599 306.324 121.56 312.376 130.116 327.551C130.564 328.326 131.428 328.475 132.144 328.236C132.889 327.998 133.456 327.342 133.277 326.507C134.529 309.246 148.779 295.711 149.942 278.598C152.744 279.94 155.457 281.4 157.842 283.547C159.065 284.65 160.883 284.173 161.39 282.593C165.713 269.952 163.835 257.133 157.872 245.595C161.748 246.549 165.355 247.921 169.112 249.799C170.692 250.604 172.212 249.59 172.391 247.921C174.09 231.852 159.661 217.452 146.156 211.221C147.587 207.614 147.766 203.44 146.215 198.521C149.316 195.987 152.208 193.184 154.772 190.084C155.517 190.561 156.232 191.068 156.948 191.545C167.233 198.58 205.334 221.387 204.142 192.648C203.575 177.771 198.596 159.406 190.398 146.855ZM199.342 190.65C199.014 191.753 198.477 192.737 197.613 193.512C195.228 195.718 190.786 194.466 188.102 193.691C176.744 190.382 165.624 184.151 156.68 176.459C147.646 168.678 144.814 156.693 143.145 145.365C142.399 140.237 141.803 134.96 142.071 129.802C142.191 127.507 142.608 125.181 143.622 123.094C144.009 122.26 144.546 121.693 145.142 121.306C146.364 122.051 147.557 122.796 148.6 123.393C152.864 125.748 157.097 128.222 161.271 130.697C161.33 130.727 161.39 130.756 161.45 130.816C165.266 133.29 169.052 135.795 172.808 138.388C171.049 139.223 169.499 140.863 169.052 142.503C167.859 147.004 171.676 151.745 174.448 154.875C177.638 158.452 182.348 161.881 187.357 161.165C188.669 160.987 190.368 160.033 191.292 158.78C193.886 165.25 195.347 172.375 196.748 178.636C197.404 181.259 198.835 186.059 199.342 190.65ZM189.474 154.666C189.653 156.097 189.414 157.528 188.162 158.333C186.82 159.198 185.121 158.929 183.69 158.512C180.739 157.677 178.205 155.352 176.088 153.235C174.031 151.148 172.212 148.614 171.169 145.842C170.215 143.248 172.003 140.326 174.388 139.462C176.654 141.042 178.89 142.652 181.096 144.321C184.734 147.004 187.387 150.612 189.474 154.666ZM88.4978 18.7498C85.8445 21.6118 83.7874 24.7123 80.508 27.1867C75.9169 30.645 70.4611 32.8214 65.0054 34.4015C55.7336 37.0846 45.478 37.1144 36.6534 33.0897C38.472 27.4253 40.7378 21.9397 43.7489 16.8119C44.673 15.2617 45.6271 13.8903 46.6705 12.6679C50.2182 8.97115 54.2131 6.40726 58.6254 5.334C62.829 4.49924 67.301 5.03585 71.8325 6.61592C73.0548 7.12274 74.307 7.71899 75.5591 8.4345C80.3291 11.1773 84.5924 14.7548 88.4978 18.7498ZM32.0026 52.7363C32.9864 47.2806 34.1491 41.795 35.6696 36.4287C43.9575 41.6459 55.197 40.7516 64.3495 38.7243C73.502 36.697 86.5302 30.9432 91.3897 21.8204C95.6231 26.5607 99.4689 31.6885 103.046 36.6076C120.547 60.5771 134.41 87.7663 145.291 115.403C140.998 113.525 136.765 112.69 133.634 114.687C129.938 117.042 130.057 123.035 130.087 126.791C130.146 132.635 131.011 138.627 131.995 144.5C123.468 153.951 107.25 157.797 95.6231 160.808C82.1477 164.296 65.6016 167.694 52.3051 162C51.2319 158.482 50.0692 155.024 48.817 151.566C47.0879 146.766 44.9712 139.074 39.7241 136.898C35.4013 135.109 31.3765 138.06 27.9779 142.145C25.8314 112.451 26.7556 82.0721 32.0026 52.7363ZM138.762 172.822C138.524 173.091 138.315 173.329 138.077 173.597C138.255 173.21 138.434 172.792 138.613 172.375C138.643 172.494 138.703 172.673 138.762 172.822ZM136.288 175.267C135.244 176.191 134.082 177.085 132.889 177.89C134.439 174.223 135.691 170.378 136.705 166.532C137.122 167.963 137.57 169.394 138.047 170.795C137.391 172.256 136.795 173.776 136.288 175.267ZM58.9236 190.68C58.6254 187.46 57.8801 184.181 57.1944 181.14C59.6987 182.124 62.5309 182.571 65.2141 182.809C66.019 186.238 66.8836 189.696 67.6289 193.095C64.6476 192.648 61.726 191.873 58.9236 190.68ZM127.582 172.673C128.656 170.825 129.789 168.947 130.743 167.039C131.637 166.502 132.531 165.906 133.366 165.28C131.667 169.692 130.295 174.253 128.715 178.725C128.358 176.698 127.97 174.7 127.582 172.673ZM127.314 171.451C127.165 170.676 127.016 169.901 126.867 169.155C127.463 168.857 128.059 168.559 128.685 168.231C128.179 169.274 127.731 170.348 127.314 171.451ZM122.007 163.044C121.113 164.624 120.278 166.234 119.771 167.963C118.639 168.44 117.476 168.887 116.313 169.304C118.072 166.114 120.159 162.924 121.381 159.496C121.62 160.688 121.829 161.881 122.007 163.044ZM122.246 164.385C122.395 165.16 122.514 165.935 122.663 166.74C121.858 167.128 121.053 167.486 120.219 167.814C120.815 166.621 121.59 165.518 122.246 164.385ZM120.904 156.902C120.934 156.902 120.934 156.902 120.904 156.902C120.994 157.349 121.083 157.797 121.173 158.244C118.907 161.672 117.297 165.608 115.896 169.483C114.673 169.901 113.481 170.318 112.259 170.676C112.199 170.378 112.139 170.079 112.05 169.781C114.286 165.786 116.939 161.911 118.907 157.797C119.593 157.498 120.248 157.2 120.904 156.902ZM111.811 168.738C111.424 167.128 111.036 165.518 110.649 163.968C111.454 162.775 112.199 161.523 112.944 160.241C114.226 159.764 115.508 159.257 116.76 158.721C114.763 161.851 113.123 165.309 111.811 168.738ZM110.351 162.865C110.202 162.358 110.082 161.851 109.933 161.344C110.44 161.165 110.947 160.987 111.454 160.808C111.096 161.464 110.708 162.149 110.351 162.865ZM106.743 162.447C107.012 165.548 107.399 168.768 107.906 171.987C104.686 172.882 101.556 173.687 98.6938 174.432C98.5149 174.492 98.3063 174.522 98.1274 174.581C97.5311 171.51 96.8454 168.47 96.0703 165.488C99.6478 164.594 103.225 163.58 106.743 162.447ZM93.3573 170.407C92.9698 171.123 92.5524 171.779 92.1052 172.435C91.1214 173.866 90.1077 175.207 89.1835 176.638C87.991 176.877 86.7687 177.115 85.5464 177.324C87.7227 173.657 90.9127 170.378 92.8207 166.562C92.9996 167.873 93.1785 169.125 93.3573 170.407ZM93.0592 173.001C93.2083 172.792 93.417 172.524 93.6256 172.226C93.7747 173.329 93.9536 174.432 94.1325 175.535C92.7611 175.863 91.3301 176.191 89.9289 176.489C91.0021 175.386 92.135 174.283 93.0592 173.001ZM98.9621 179.113C99.469 178.993 100.006 178.874 100.512 178.725C100.065 179.351 99.618 180.007 99.2305 180.633C99.141 180.126 99.0516 179.62 98.9621 179.113ZM99.4093 181.617C100.065 180.782 100.721 179.947 101.377 179.113C101.586 178.844 101.794 178.576 102.003 178.338C103.046 178.069 104.12 177.771 105.163 177.473C104.448 178.695 103.732 179.947 102.927 181.08C101.943 182.482 100.93 183.883 100.006 185.344C99.7969 184.091 99.618 182.869 99.4093 181.617ZM85.0098 177.443C84.6818 177.503 84.3837 177.533 84.0557 177.592C83.8471 176.698 83.6085 175.833 83.37 174.969C84.4135 173.329 85.4271 171.689 86.5302 170.109C87.2457 169.066 88.1103 168.082 88.9152 167.068C89.6904 166.919 90.4655 166.74 91.2406 166.591C88.8556 170.02 86.4706 173.597 85.0098 177.443ZM86.2619 168.887C85.0992 170.497 83.9961 172.256 83.1017 174.074C82.744 172.852 82.416 171.66 82.0285 170.467C82.3862 169.841 82.7738 169.185 83.221 168.589C83.37 168.41 83.4893 168.231 83.6384 168.052C84.8607 167.843 86.1128 167.605 87.3352 167.367C86.9774 167.903 86.6196 168.41 86.2619 168.887ZM81.6707 169.274C81.5813 168.976 81.4918 168.708 81.4024 168.44C81.7303 168.38 82.0285 168.35 82.3564 168.291C82.1179 168.589 81.8794 168.917 81.6707 169.274ZM78.0336 168.887C78.5702 171.958 79.1366 175.088 79.7031 178.218C75.9467 178.636 72.1604 178.815 68.4338 178.576C67.778 175.535 67.1519 172.494 66.3171 169.483C70.2226 169.573 74.1281 169.334 78.0336 168.887ZM69.7754 184.27C69.6562 183.853 69.5667 183.465 69.4773 183.048C70.64 183.078 71.8027 183.078 72.9654 183.048C72.6076 183.555 72.2499 184.091 71.8623 184.598C71.3853 185.254 70.8785 185.91 70.4015 186.566C70.1928 185.791 69.9841 185.045 69.7754 184.27ZM70.6102 187.252C71.8623 186.029 73.0846 184.568 73.8001 183.048C74.7243 183.018 75.6784 182.988 76.6025 182.899C74.5157 185.135 72.9952 188.086 71.4449 190.74C71.2064 189.577 70.9381 188.414 70.6102 187.252ZM63.5744 175.118C63.0377 175.953 62.5607 176.817 62.1433 177.741C61.1893 177.533 60.2353 177.324 59.2813 177.026C59.8179 176.31 60.295 175.595 60.772 174.82C61.4576 173.717 62.2626 172.643 62.9483 171.51C63.157 172.733 63.3359 173.925 63.5744 175.118ZM63.7234 175.982C63.8725 176.698 63.9917 177.413 64.1408 178.099C63.634 178.01 63.0974 177.92 62.5905 177.831C62.9781 177.205 63.3657 176.579 63.7234 175.982ZM62.68 169.274C62.7396 169.722 62.7694 170.199 62.829 170.646C61.0403 172.196 59.9372 174.7 58.8639 176.877C57.9397 176.608 57.0454 176.281 56.151 175.923C56.8665 174.76 57.582 173.627 58.3273 172.464C59.0428 171.302 59.9372 170.199 60.6825 169.036C61.3682 169.155 62.0241 169.215 62.68 169.274ZM55.9125 175.505C55.6143 174.134 55.2864 172.763 54.9585 171.391C55.3162 170.944 55.674 170.467 56.0317 170.02C56.4193 169.513 56.8069 169.006 57.1944 168.47C58.0292 168.678 58.8938 168.827 59.7583 168.947C58.1186 170.855 56.8367 173.24 55.9125 175.505ZM54.8392 170.974C54.5411 169.781 54.1833 168.619 53.8554 167.456C54.72 167.814 55.6143 168.112 56.5385 168.35C55.9125 169.185 55.3758 170.079 54.8392 170.974ZM71.8027 193.572C71.7729 192.797 71.6834 192.022 71.5344 191.247C73.7107 188.563 75.887 185.731 77.7652 182.839C78.6894 182.75 79.6136 182.66 80.5378 182.571C80.5676 182.78 80.6273 182.988 80.6571 183.167C77.8249 186.119 75.6485 190.024 73.7405 193.691C73.0846 193.632 72.4288 193.602 71.8027 193.572ZM80.8658 184.3C81.1043 185.463 81.313 186.655 81.5813 187.818C80.1205 189.607 78.7789 191.574 77.7056 193.632C76.5429 193.691 75.3802 193.691 74.2175 193.691C76.5131 190.62 78.9279 187.55 80.8658 184.3ZM81.79 188.653C82.1477 190.203 82.5055 191.724 82.893 193.214C81.2832 193.393 79.7031 193.512 78.0932 193.572C79.3751 191.992 80.9254 190.501 81.79 188.653ZM86.3215 192.797C86.2321 189.249 85.7551 185.612 85.0098 181.945C88.3488 181.408 91.658 180.782 94.9076 180.067C95.5933 183.674 96.3982 187.192 97.4119 190.62C93.8343 191.425 90.1077 192.23 86.3215 192.797ZM100.691 189.786C100.512 188.653 100.334 187.52 100.155 186.387C101.347 184.777 102.569 183.167 103.792 181.587C104.865 180.186 106.087 178.666 106.833 176.966C107.459 176.787 108.085 176.579 108.681 176.37C108.83 177.056 108.949 177.771 109.098 178.457C106.386 181.528 104.567 185.582 102.629 189.279C102.45 189.339 102.271 189.368 102.092 189.428C101.645 189.547 101.168 189.666 100.691 189.786ZM109.397 179.679C109.695 180.991 110.023 182.273 110.41 183.525C110.112 183.972 109.814 184.39 109.516 184.837C108.771 185.88 108.025 186.924 107.399 188.057C106.058 188.414 104.746 188.742 103.464 189.07C105.67 186.149 107.697 182.929 109.397 179.679ZM110.768 184.867C110.977 185.582 111.245 186.268 111.483 186.953C110.38 187.281 109.277 187.58 108.204 187.848C109.039 186.864 109.963 185.88 110.768 184.867ZM114.793 185.97C114.405 182.362 113.839 178.636 113.123 174.909C116.611 173.687 120.04 172.286 123.379 170.765C124.064 174.492 124.84 178.218 125.794 181.855C122.276 183.465 118.519 184.807 114.793 185.97ZM128.954 180.305C128.924 180.037 128.864 179.798 128.835 179.53C131.518 174.581 133.575 169.185 135.155 163.759C135.364 163.55 135.572 163.372 135.781 163.163C135.99 163.908 136.198 164.654 136.407 165.399C134.439 169.424 133.485 173.925 132.382 178.278C131.279 178.964 130.146 179.649 128.954 180.305ZM126.002 165.071C125.287 161.881 124.571 158.721 123.766 155.561C126.956 153.981 130.415 151.983 132.859 149.419C132.949 149.866 133.008 150.284 133.098 150.731C133.575 153.354 134.082 155.948 134.678 158.542C132.263 161.106 129.282 163.252 126.002 165.071ZM8.15239 183.495C9.5834 180.752 11.074 178.039 12.5945 175.386C17.0962 178.457 17.1857 184.121 15.4565 189.517C13.8168 194.586 9.61322 199.266 5.05186 197.597C5.08167 192.618 5.94624 187.818 8.15239 183.495ZM5.08167 200.25C6.42325 200.787 8.03314 200.846 9.79209 200.25C13.3696 199.028 15.9037 195.301 17.2751 191.962C19.5409 186.417 20.0179 176.102 13.5485 173.776C15.6354 170.169 17.7819 166.591 19.9583 163.014C23.7445 157.23 27.6201 151.417 31.8536 145.931C36.6236 147.63 38.9788 156.217 40.1713 160.062C42.9141 168.827 44.524 178.069 45.3289 187.222C45.5973 190.084 45.7761 193.005 45.5376 195.868C45.001 202.069 41.2148 208.091 37.8757 213.159C33.8808 219.211 29.1406 224.935 24.132 230.182C21.9855 232.448 19.6899 234.803 16.7385 236.025C14.8901 236.771 13.5485 236.323 12.5051 235.34C10.3585 230.361 9.37471 223.862 8.71883 221.119C7.16856 214.679 5.40961 207.405 5.08167 200.25ZM42.3178 219.479C37.3987 227.29 30.6909 238.142 21.3893 241.332C18.2291 242.435 15.8739 240.944 14.1149 238.351C15.546 238.559 17.0962 238.261 18.3782 237.635C24.7581 234.445 29.6176 227.499 33.9703 222.073C39.0682 215.723 43.7787 208.866 46.4916 201.144C47.8928 197.149 47.8928 193.184 47.6245 189.011C46.9388 178.427 44.9414 167.575 41.4235 157.588C40.2608 154.308 37.19 146.319 32.8374 144.709C33.2547 144.172 33.6721 143.606 34.0895 143.099C39.3664 136.659 45.4184 156.664 46.1935 158.989C48.3698 165.458 50.1288 172.017 51.6492 178.666C53.0206 184.688 54.7796 191.545 53.7659 197.716C52.5436 205.109 46.2829 213.159 42.3178 219.479ZM168.128 244.522C163.686 242.554 159.244 241.183 154.235 240.438C152.476 240.169 150.687 241.839 151.79 243.628C158.409 254.479 161.271 266.375 158.141 278.568C155.249 276.66 152.208 275.17 149.018 273.679C147.706 273.053 145.917 273.768 145.977 275.438C146.424 292.044 132.621 304.952 130.236 320.813C121.173 307.546 103.136 301.822 96.3684 286.528C95.8616 285.395 93.9536 285.157 93.1785 286.111C90.8531 288.943 88.6767 291.686 86.7985 294.757C78.6298 285.067 76.1255 272.963 77.4373 260.323C77.6162 258.713 75.4398 257.55 74.1579 258.445C69.8947 261.366 66.3469 264.556 63.0675 268.372C58.1484 256.775 63.8427 242.048 71.1468 232.537C73.6213 233.551 76.3342 234.058 79.1366 234.266C76.1852 239.692 73.9194 245.476 72.9654 251.617C72.9356 251.796 73.2039 251.945 73.2635 251.737C75.8572 245.953 78.0336 240.02 80.836 234.356C84.6818 234.445 88.6767 234.058 92.4629 233.521C90.4655 241.421 89.75 249.56 89.9289 257.729C90.1077 265.779 91.2108 274.782 95.1461 281.967C95.2355 282.116 95.4442 282.026 95.4144 281.848C93.4468 273.828 91.8667 266.017 91.5984 257.729C91.3301 249.531 92.2244 241.272 94.043 233.283C96.0703 232.984 98.0081 232.686 99.8267 232.448C100.393 232.358 100.989 232.299 101.586 232.209C101.109 241.243 102.42 250.544 103.941 259.369C103.971 259.577 104.299 259.518 104.299 259.309C103.792 250.216 102.42 241.153 102.51 232.06C104.12 231.822 105.819 231.553 107.638 231.225C108.92 242.077 111.066 252.75 113.66 263.364C116.492 275.05 119.742 286.856 124.392 297.976C124.482 298.185 124.81 298.125 124.75 297.887C122.007 286.618 118.46 275.527 115.657 264.258C112.915 253.287 110.798 242.167 109.188 230.957C114.554 229.973 120.517 228.572 126.122 226.575C132.74 239.007 135.632 252.601 140.432 265.719C140.491 265.898 140.819 265.898 140.789 265.659C139.418 252.184 134.32 237.814 127.374 226.098C131.13 224.667 134.678 222.967 137.719 220.91C143.562 224.786 148.928 228.96 153.669 234.207C153.788 234.356 154.086 234.207 153.997 233.998C151.522 227.559 144.814 223.415 138.971 219.986C140.939 218.495 142.638 216.856 143.979 215.007C155.219 220.433 167.472 231.375 168.128 244.522ZM140.73 211.877C138.464 216.468 131.19 219.271 126.748 221.119C118.519 224.577 109.575 226.277 100.811 227.618C92.4033 228.9 83.1614 230.301 74.6945 228.96C68.3742 227.976 66.496 222.967 64.7967 217.78C71.8623 219.241 79.1664 219.658 86.5004 219.3C86.7985 219.42 87.1861 219.479 87.6035 219.42C90.6742 219.121 93.8045 218.734 96.9945 218.227C101.437 217.571 105.849 216.647 110.172 215.544C110.708 215.425 111.215 215.276 111.752 215.127C112.736 214.858 113.719 214.59 114.703 214.292C115.121 214.173 115.538 214.053 115.955 213.934C118.847 213.069 121.709 212.115 124.482 211.102C124.78 210.983 125.048 210.834 125.287 210.655C131.279 208.24 137.003 205.229 142.22 201.621C142.131 205.08 142.459 208.389 140.73 211.877ZM114.644 208.985C110.679 210.178 106.594 211.221 102.42 212.086C102.182 212.145 101.943 212.175 101.705 212.235C101.079 212.354 100.423 212.473 99.7969 212.592C99.2304 212.682 98.664 212.801 98.0976 212.891C83.1912 215.395 67.7183 215.127 54.2131 209.164C55.9423 205.855 57.4329 202.456 58.4167 198.968C58.7447 197.865 58.9236 196.672 59.013 195.45C62.8589 197.507 67.8674 197.895 71.9219 198.074C81.3428 198.491 90.9425 196.762 100.095 194.675C109.456 192.558 118.668 189.547 127.404 185.522C131.607 183.585 137.242 180.872 140.342 176.847C142.489 181.11 146.424 184.36 150.508 187.222C141.356 197.835 128.417 204.722 114.644 208.985ZM193.498 202.158C183.243 203.351 171.735 195.182 163.596 190.054C157.157 185.999 149.495 181.647 145.083 175.356C141.535 170.288 140.462 162.06 139.12 156.157C138.255 152.341 130.921 117.072 138.941 118.503C140.402 118.772 141.952 119.487 143.473 120.322C139.925 124.257 140.044 134.513 140.402 138.776C141.565 152.251 144.129 167.516 154.444 177.145C163.865 185.94 177.131 193.304 189.772 196.195C193.051 196.941 196.748 197.03 199.342 194.586C199.372 194.556 199.401 194.526 199.431 194.496C199.252 198.491 197.732 201.681 193.498 202.158Z" fill="#2D2D2D"/>
</svg>
