<svg width="99" height="102" viewBox="0 0 99 102" fill="none" xmlns="http://www.w3.org/2000/svg">
<path d="M69.532 14.4106C63.832 17.3106 58.132 20.3106 52.532 23.4106C48.432 19.4106 44.332 15.4106 40.332 11.4106C28.732 -0.189354 21.932 -9.38938 24.932 17.5106C25.632 24.0106 26.3321 30.5106 27.1321 37.1106C22.3321 39.6106 17.4321 42.2106 12.6321 44.6106C-6.86794 54.4106 -1.96795 58.0107 14.932 61.3107C19.532 62.2107 24.132 63.2106 28.732 64.2106C28.832 71.2106 29.232 78.2106 29.832 85.2106C31.832 107.311 40.232 103.911 45.032 94.3107C49.032 86.4107 53.332 78.6105 57.732 70.9105C64.432 72.6105 71.232 74.3106 77.932 76.0106C97.232 80.9106 108.032 77.5106 89.032 58.7106C83.832 53.6106 78.632 48.5106 73.332 43.5106C76.332 38.3106 79.1321 33.1106 81.6321 27.7106C87.6321 14.6106 85.132 6.31065 69.532 14.4106Z" fill="#2D2D2D"/>
</svg>
