<svg width="74" height="88" viewBox="0 0 74 88" fill="none" xmlns="http://www.w3.org/2000/svg">
<path d="M66.8751 45.7972C63.4078 41.6642 59.84 37.5816 56.2219 33.5494C58.3827 28.9124 60.4932 24.225 62.5032 19.4871C67.6288 7.59214 66.4228 2.6527 54.0611 10.1627C49.8903 12.6828 45.7195 15.2533 41.4984 17.7735C38.5839 14.7493 35.6693 11.7755 32.7548 8.8018C22.8553 -1.2283 17.4785 -7.37741 18.8855 17.1182C19.1368 21.7552 19.3378 26.3923 19.4886 31.0293C16.172 32.995 12.8554 34.9607 9.58914 36.9264C-6.03887 46.2005 -0.461024 49.0734 11.3479 51.6439C14.3127 52.2992 17.2775 52.904 20.2423 53.5592C20.4936 59.2043 20.8453 64.8494 21.3981 70.4441C24.0111 96.5022 27.9809 90.0506 36.2723 73.7202C38.8351 68.6296 41.4482 63.5389 44.011 58.4483C48.9355 59.4563 53.8601 60.5148 58.7847 61.6236C76.4227 65.7062 78.1815 59.3555 66.8751 45.7972Z" fill="#2D2D2D"/>
</svg>
